<?xml version="1.0" encoding="iso-8859-1"?>
<!-- Generator: Adobe Illustrator 19.0.0, SVG Export Plug-In . SVG Version: 6.00 Build 0)  -->
<svg version="1.1" id="Capa_1" xmlns="http://www.w3.org/2000/svg" xmlns:xlink="http://www.w3.org/1999/xlink" x="0px" y="0px"
	 viewBox="0 0 511.999 511.999" style="enable-background:new 0 0 511.999 511.999;" xml:space="preserve">
<g>
	<g>
		<path d="M416.618,115.118C381.17,63.714,331.921,24.312,274.177,1.16c-0.941-0.394-1.927-0.693-2.947-0.889
			c-2.149-0.417-4.316-0.344-6.366,0.155c-2.084,0.503-3.983,1.434-5.608,2.686c-1.538,1.18-2.862,2.67-3.866,4.425
			c-1.092,1.898-1.776,4.047-1.949,6.316c-0.076,0.98-0.054,1.956,0.061,2.916c0.594,5.677,0.895,11.467,0.895,17.213
			c0,60.128-32.858,114.874-84.88,143.387c-5.333-15.044-8.218-30.773-8.608-46.966c0.008-0.038,0.017-0.076,0.024-0.114
			c0.82-3.894,0.059-7.953-2.115-11.285l-0.392-0.601c-3.626-5.559-10.475-8.075-16.838-6.183c-3.027,0.9-5.602,2.696-7.469,5.046
			C74.984,157.67,39.828,224.064,39.828,295.828c0,57.741,22.486,112.027,63.315,152.857c40.83,40.829,95.115,63.314,152.857,63.314
			s112.027-22.486,152.857-63.314c40.83-40.83,63.315-95.115,63.315-152.857v-1.94C472.169,229.637,452.961,167.82,416.618,115.118z
			 M442.17,295.828c0,102.655-83.516,186.172-186.172,186.172S69.825,398.483,69.825,295.828
			c0-54.193,23.284-104.834,63.358-139.951c2.688,16.701,7.701,32.884,14.998,48.362c3.282,6.962,11.31,10.309,18.568,7.746
			c0.327-0.115,0.649-0.242,0.966-0.379c69.474-30.072,114.854-97.654,116.627-173.042
			C380.955,86.618,442.17,184.443,442.17,293.887V295.828z"/>
	</g>
</g>
<g>
</g>
<g>
</g>
<g>
</g>
<g>
</g>
<g>
</g>
<g>
</g>
<g>
</g>
<g>
</g>
<g>
</g>
<g>
</g>
<g>
</g>
<g>
</g>
<g>
</g>
<g>
</g>
<g>
</g>
</svg>
