<?xml version="1.0" encoding="iso-8859-1"?>
<!-- Generator: Adobe Illustrator 19.0.0, SVG Export Plug-In . SVG Version: 6.00 Build 0)  -->
<svg version="1.1" id="Capa_1" xmlns="http://www.w3.org/2000/svg" xmlns:xlink="http://www.w3.org/1999/xlink" x="0px" y="0px"
	 viewBox="0 0 511.998 511.998" style="enable-background:new 0 0 511.998 511.998;" xml:space="preserve">
<g>
	<g>
		<path d="M280.567,0.654c-5.091-2.267-10.788,1.655-10.496,7.22c0.158,3.014,0.277,6.039,0.277,8.33
			c0,78.595-47.446,146.108-115.259,175.46l-0.009,0.003c-11.679-16.167-15.15-45.059-16.173-62.075
			c-0.355-5.912-7.161-9.091-11.902-5.541c-52.863,39.587-86.932,102.9-86.412,174.145
			c0.871,119.241,99.603,215.635,218.832,213.776c117.389-1.83,211.987-97.561,211.987-215.386v-2.078
			C471.414,163.467,393.017,50.734,280.567,0.654z"/>
	</g>
</g>
<g>
</g>
<g>
</g>
<g>
</g>
<g>
</g>
<g>
</g>
<g>
</g>
<g>
</g>
<g>
</g>
<g>
</g>
<g>
</g>
<g>
</g>
<g>
</g>
<g>
</g>
<g>
</g>
<g>
</g>
</svg>
